<?xml version="1.0" standalone="no"?>
<!DOCTYPE svg PUBLIC "-//W3C//DTD SVG 20010904//EN"
 "http://www.w3.org/TR/2001/REC-SVG-20010904/DTD/svg10.dtd">
<svg version="1.0" xmlns="http://www.w3.org/2000/svg"
 width="800.000000pt" height="800.000000pt" viewBox="0 0 800.000000 800.000000"
 preserveAspectRatio="xMidYMid meet">
<metadata>
Created by potrace 1.14, written by Peter Selinger 2001-2017
</metadata>
<g transform="translate(0.000000,800.000000) scale(0.100000,-0.100000)"
fill="#000000" stroke="none">
<path d="M2785 5885 c-665 -387 -1209 -707 -1209 -711 1 -4 171 -106 378 -226
l376 -218 193 111 c105 61 196 115 200 119 4 3 -73 53 -172 111 -144 83 -177
106 -163 113 9 5 376 218 815 472 l797 463 798 -463 c438 -254 805 -467 814
-472 14 -7 -19 -30 -163 -113 -99 -58 -176 -108 -172 -111 4 -4 95 -58 201
-119 l192 -111 378 219 c207 120 377 222 377 226 0 5 -2424 1417 -2429 1414 0
0 -545 -317 -1211 -704z"/>
<path d="M2780 4700 c-663 -385 -1203 -703 -1201 -707 3 -5 548 -324 1213
-709 l1209 -702 375 218 c207 120 378 220 380 223 3 2 -75 51 -173 107 -98 57
-187 109 -199 116 -18 13 -37 4 -202 -92 l-182 -106 -815 473 -815 473 28 17
c15 9 381 222 814 474 l788 457 797 -463 c439 -254 806 -468 815 -474 14 -9
-10 -27 -162 -115 -99 -57 -179 -105 -177 -106 1 -1 91 -54 200 -118 l197
-115 381 221 c209 122 376 224 372 228 -24 21 -2413 1400 -2424 1400 -8 0
-556 -315 -1219 -700z"/>
<path d="M3436 4323 c-159 -93 -195 -119 -184 -127 9 -6 547 -319 1196 -696
932 -540 1177 -687 1164 -694 -9 -5 -376 -218 -814 -472 l-798 -463 -797 463
c-439 254 -806 467 -815 472 -14 7 19 30 163 113 99 58 176 108 172 111 -4 4
-95 58 -200 119 l-193 111 -375 -217 c-206 -120 -374 -222 -374 -228 0 -5 545
-326 1210 -712 l1209 -702 1208 701 c664 385 1211 704 1215 708 5 4 -11 19
-35 33 -1104 642 -2751 1597 -2752 1596 0 0 -90 -52 -200 -116z"/>
</g>
</svg>
